<svg width="40" height="40" viewBox="0 0 40 40" fill="none" xmlns="http://www.w3.org/2000/svg">
<g opacity="0.8" clip-path="url(#clip0_19_228)">
<path d="M38.3334 31.6667C38.3334 32.5507 37.9822 33.3986 37.357 34.0237C36.7319 34.6488 35.8841 35 35 35H5.00002C4.11597 35 3.26812 34.6488 2.643 34.0237C2.01788 33.3986 1.66669 32.5507 1.66669 31.6667V13.3333C1.66669 12.4493 2.01788 11.6014 2.643 10.9763C3.26812 10.3512 4.11597 10 5.00002 10H11.6667L15 5H25L28.3334 10H35C35.8841 10 36.7319 10.3512 37.357 10.9763C37.9822 11.6014 38.3334 12.4493 38.3334 13.3333V31.6667Z" fill="#D9D9D9"/>
<path d="M20 28.3333C23.6819 28.3333 26.6667 25.3486 26.6667 21.6667C26.6667 17.9848 23.6819 15 20 15C16.3181 15 13.3334 17.9848 13.3334 21.6667C13.3334 25.3486 16.3181 28.3333 20 28.3333Z" fill="#D9D9D9"/>
<path d="M38.3334 31.6667C38.3334 32.5507 37.9822 33.3986 37.357 34.0237C36.7319 34.6488 35.8841 35 35 35H5.00002C4.11597 35 3.26812 34.6488 2.643 34.0237C2.01788 33.3986 1.66669 32.5507 1.66669 31.6667V13.3333C1.66669 12.4493 2.01788 11.6014 2.643 10.9763C3.26812 10.3512 4.11597 10 5.00002 10H11.6667L15 5H25L28.3334 10H35C35.8841 10 36.7319 10.3512 37.357 10.9763C37.9822 11.6014 38.3334 12.4493 38.3334 13.3333V31.6667Z" stroke="#FF2525" stroke-width="4" stroke-linecap="round" stroke-linejoin="round"/>
<path d="M20 28.3333C23.6819 28.3333 26.6667 25.3486 26.6667 21.6667C26.6667 17.9848 23.6819 15 20 15C16.3181 15 13.3334 17.9848 13.3334 21.6667C13.3334 25.3486 16.3181 28.3333 20 28.3333Z" stroke="#FF2525" stroke-width="4" stroke-linecap="round" stroke-linejoin="round"/>
</g>
<defs>
<clipPath id="clip0_19_228">
<rect width="40" height="40" fill="white"/>
</clipPath>
</defs>
</svg>
