<svg width="40" height="35" viewBox="0 0 40 35" fill="none" xmlns="http://www.w3.org/2000/svg">
<path d="M19.8487 12.4255V19.2589M19.8487 26.0922H19.8658M16.9274 3.64469L2.45787 27.8005C2.15954 28.3172 2.00168 28.9029 2.00001 29.4995C1.99834 30.0961 2.15291 30.6827 2.44834 31.201C2.74378 31.7193 3.16977 32.1512 3.68395 32.4538C4.19813 32.7563 4.78256 32.919 5.37912 32.9255H34.3183C34.9148 32.919 35.4993 32.7563 36.0134 32.4538C36.5276 32.1512 36.9536 31.7193 37.2491 31.201C37.5445 30.6827 37.6991 30.0961 37.6974 29.4995C37.6957 28.9029 37.5379 28.3172 37.2395 27.8005L22.7699 3.64469C22.4654 3.14262 22.0366 2.72752 21.5249 2.43943C21.0132 2.15134 20.4359 2 19.8487 2C19.2615 2 18.6842 2.15134 18.1725 2.43943C17.6608 2.72752 17.232 3.14262 16.9274 3.64469Z" stroke="#675305" stroke-width="4" stroke-linecap="round" stroke-linejoin="round"/>
</svg>
