<svg width="41" height="41" viewBox="0 0 41 41" fill="none" xmlns="http://www.w3.org/2000/svg">
<path d="M3.41666 27.5041C5.05819 27.8389 6.56502 28.649 7.74965 29.8337C8.93428 31.0183 9.74439 32.5251 10.0792 34.1666M3.41666 20.5854C6.88593 20.9712 10.1206 22.5261 12.5889 24.9944C15.0572 27.4627 16.6121 30.6974 16.9979 34.1666M3.41666 13.6666V10.25C3.41666 9.34382 3.77663 8.47478 4.41738 7.83403C5.05813 7.19328 5.92717 6.83331 6.83333 6.83331H34.1667C35.0728 6.83331 35.9419 7.19328 36.5826 7.83403C37.2234 8.47478 37.5833 9.34382 37.5833 10.25V30.75C37.5833 31.6561 37.2234 32.5252 36.5826 33.1659C35.9419 33.8067 35.0728 34.1666 34.1667 34.1666H23.9167M3.41666 34.1666H3.43375" stroke="#006800" stroke-width="4" stroke-linecap="round" stroke-linejoin="round"/>
</svg>
