<svg width="571" height="72" viewBox="0 0 571 72" fill="none" xmlns="http://www.w3.org/2000/svg">
<path d="M555.816 1.5H15.1307C7.60268 1.5 1.5 7.67751 1.5 15.2979V56.6914C1.5 64.3118 7.60268 70.4893 15.1307 70.4893H555.816C563.344 70.4893 569.446 64.3118 569.446 56.6914V15.2979C569.446 7.67751 563.344 1.5 555.816 1.5Z" fill="white" fill-opacity="0.95" stroke="#006800" stroke-width="3"/>
<path d="M542.185 31.3953H28.7613C26.252 31.3953 24.2178 33.4544 24.2178 35.9946C24.2178 38.5347 26.252 40.5938 28.7613 40.5938H542.185C544.694 40.5938 546.728 38.5347 546.728 35.9946C546.728 33.4544 544.694 31.3953 542.185 31.3953Z" fill="#E0E0E0"/>
<path d="M405.878 31.3953H28.7613C26.252 31.3953 24.2178 33.4544 24.2178 35.9946C24.2178 38.5347 26.252 40.5938 28.7613 40.5938H405.878C408.387 40.5938 410.421 38.5347 410.421 35.9946C410.421 33.4544 408.387 31.3953 405.878 31.3953Z" fill="#006633"/>
<path d="M410.421 49.7923C417.949 49.7923 424.052 43.6147 424.052 35.9944C424.052 28.374 417.949 22.1965 410.421 22.1965C402.893 22.1965 396.791 28.374 396.791 35.9944C396.791 43.6147 402.893 49.7923 410.421 49.7923Z" fill="white" stroke="#006633" stroke-width="4"/>
<path d="M27.9678 59.612C27.3257 59.612 26.7789 59.4373 26.3271 59.0878C25.8754 58.7356 25.5303 58.2256 25.2916 57.558C25.053 56.8876 24.9337 56.0779 24.9337 55.129C24.9337 54.1859 25.053 53.3805 25.2916 52.7128C25.5331 52.0424 25.8797 51.531 26.3314 51.1788C26.786 50.8236 27.3314 50.6461 27.9678 50.6461C28.6041 50.6461 29.1482 50.8236 29.5999 51.1788C30.0544 51.531 30.401 52.0424 30.6396 52.7128C30.8811 53.3805 31.0019 54.1859 31.0019 55.129C31.0019 56.0779 30.8825 56.8876 30.6439 57.558C30.4053 58.2256 30.0601 58.7356 29.6084 59.0878C29.1567 59.4373 28.6098 59.612 27.9678 59.612ZM27.9678 58.6745C28.6041 58.6745 29.0985 58.3677 29.4507 57.754C29.803 57.1404 29.9791 56.2654 29.9791 55.129C29.9791 54.3734 29.8982 53.7299 29.7362 53.1986C29.5771 52.6674 29.347 52.2626 29.0459 51.9842C28.7476 51.7057 28.3882 51.5665 27.9678 51.5665C27.3371 51.5665 26.8442 51.8776 26.4891 52.4998C26.134 53.1191 25.9564 53.9955 25.9564 55.129C25.9564 55.8847 26.036 56.5268 26.195 57.0552C26.3541 57.5836 26.5828 57.9856 26.8811 58.2611C27.1823 58.5367 27.5445 58.6745 27.9678 58.6745ZM35.4166 59.612C34.8314 59.612 34.3144 59.5083 33.8655 59.3009C33.4195 59.0907 33.0715 58.8023 32.8215 58.4359C32.5715 58.0665 32.4479 57.6461 32.4507 57.1745C32.4479 56.8052 32.5203 56.4643 32.6681 56.1518C32.8158 55.8364 33.0175 55.5736 33.2732 55.3634C33.5317 55.1503 33.82 55.0154 34.1382 54.9586V54.9074C33.7206 54.7995 33.3882 54.5651 33.1411 54.2043C32.8939 53.8407 32.7718 53.4273 32.7746 52.9643C32.7718 52.5211 32.884 52.1248 33.1112 51.7753C33.3385 51.4259 33.651 51.1503 34.0487 50.9486C34.4493 50.7469 34.9053 50.6461 35.4166 50.6461C35.9223 50.6461 36.374 50.7469 36.7718 50.9486C37.1695 51.1503 37.482 51.4259 37.7093 51.7753C37.9394 52.1248 38.0558 52.5211 38.0587 52.9643C38.0558 53.4273 37.9294 53.8407 37.6794 54.2043C37.4323 54.5651 37.1041 54.7995 36.695 54.9074V54.9586C37.0104 55.0154 37.2945 55.1503 37.5473 55.3634C37.8002 55.5736 38.0019 55.8364 38.1524 56.1518C38.303 56.4643 38.3797 56.8052 38.3825 57.1745C38.3797 57.6461 38.2519 58.0665 37.999 58.4359C37.749 58.8023 37.401 59.0907 36.955 59.3009C36.5118 59.5083 35.999 59.612 35.4166 59.612ZM35.4166 58.6745C35.8115 58.6745 36.1524 58.6106 36.4394 58.4827C36.7263 58.3549 36.9479 58.1745 37.1041 57.9415C37.2604 57.7086 37.3399 57.4359 37.3428 57.1234C37.3399 56.7938 37.2547 56.5026 37.0871 56.2498C36.9195 55.9969 36.6908 55.7981 36.401 55.6532C36.1141 55.5083 35.786 55.4359 35.4166 55.4359C35.0445 55.4359 34.7121 55.5083 34.4195 55.6532C34.1297 55.7981 33.901 55.9969 33.7334 56.2498C33.5686 56.5026 33.4877 56.7938 33.4905 57.1234C33.4877 57.4359 33.5629 57.7086 33.7164 57.9415C33.8726 58.1745 34.0956 58.3549 34.3854 58.4827C34.6752 58.6106 35.0189 58.6745 35.4166 58.6745ZM35.4166 54.5324C35.7291 54.5324 36.0061 54.4699 36.2476 54.3449C36.4919 54.2199 36.6837 54.0452 36.8229 53.8208C36.9621 53.5964 37.0331 53.3336 37.036 53.0324C37.0331 52.737 36.9635 52.4799 36.8271 52.2611C36.6908 52.0396 36.5019 51.8691 36.2604 51.7498C36.0189 51.6276 35.7377 51.5665 35.4166 51.5665C35.0899 51.5665 34.8044 51.6276 34.5601 51.7498C34.3158 51.8691 34.1269 52.0396 33.9933 52.2611C33.8598 52.4799 33.7945 52.737 33.7973 53.0324C33.7945 53.3336 33.8612 53.5964 33.9976 53.8208C34.1368 54.0452 34.3286 54.2199 34.5729 54.3449C34.8172 54.4699 35.0985 54.5324 35.4166 54.5324ZM40.7657 58.3762C40.5555 58.3762 40.3751 58.3009 40.2245 58.1503C40.074 57.9998 39.9987 57.8194 39.9987 57.6092C39.9987 57.3989 40.074 57.2185 40.2245 57.068C40.3751 56.9174 40.5555 56.8421 40.7657 56.8421C40.9759 56.8421 41.1563 56.9174 41.3069 57.068C41.4575 57.2185 41.5328 57.3989 41.5328 57.6092C41.5328 57.7484 41.4972 57.8762 41.4262 57.9927C41.358 58.1092 41.2657 58.2029 41.1492 58.2739C41.0356 58.3421 40.9078 58.3762 40.7657 58.3762ZM40.7657 53.9614C40.5555 53.9614 40.3751 53.8861 40.2245 53.7356C40.074 53.585 39.9987 53.4046 39.9987 53.1944C39.9987 52.9842 40.074 52.8038 40.2245 52.6532C40.3751 52.5026 40.5555 52.4273 40.7657 52.4273C40.9759 52.4273 41.1563 52.5026 41.3069 52.6532C41.4575 52.8038 41.5328 52.9842 41.5328 53.1944C41.5328 53.3336 41.4972 53.4614 41.4262 53.5779C41.358 53.6944 41.2657 53.7881 41.1492 53.8592C41.0356 53.9273 40.9078 53.9614 40.7657 53.9614ZM46.167 59.612C45.5249 59.612 44.9781 59.4373 44.5264 59.0878C44.0747 58.7356 43.7295 58.2256 43.4909 57.558C43.2522 56.8876 43.1329 56.0779 43.1329 55.129C43.1329 54.1859 43.2522 53.3805 43.4909 52.7128C43.7323 52.0424 44.0789 51.531 44.5306 51.1788C44.9852 50.8236 45.5306 50.6461 46.167 50.6461C46.8034 50.6461 47.3474 50.8236 47.7991 51.1788C48.2536 51.531 48.6002 52.0424 48.8389 52.7128C49.0803 53.3805 49.2011 54.1859 49.2011 55.129C49.2011 56.0779 49.0818 56.8876 48.8431 57.558C48.6045 58.2256 48.2593 58.7356 47.8076 59.0878C47.3559 59.4373 46.809 59.612 46.167 59.612ZM46.167 58.6745C46.8034 58.6745 47.2977 58.3677 47.6499 57.754C48.0022 57.1404 48.1784 56.2654 48.1784 55.129C48.1784 54.3734 48.0974 53.7299 47.9355 53.1986C47.7764 52.6674 47.5463 52.2626 47.2451 51.9842C46.9468 51.7057 46.5874 51.5665 46.167 51.5665C45.5363 51.5665 45.0434 51.8776 44.6883 52.4998C44.3332 53.1191 44.1556 53.9955 44.1556 55.129C44.1556 55.8847 44.2352 56.5268 44.3943 57.0552C44.5534 57.5836 44.782 57.9856 45.0803 58.2611C45.3815 58.5367 45.7437 58.6745 46.167 58.6745ZM53.667 59.612C53.0249 59.612 52.4781 59.4373 52.0264 59.0878C51.5747 58.7356 51.2295 58.2256 50.9909 57.558C50.7522 56.8876 50.6329 56.0779 50.6329 55.129C50.6329 54.1859 50.7522 53.3805 50.9909 52.7128C51.2323 52.0424 51.5789 51.531 52.0306 51.1788C52.4852 50.8236 53.0306 50.6461 53.667 50.6461C54.3034 50.6461 54.8474 50.8236 55.2991 51.1788C55.7536 51.531 56.1002 52.0424 56.3389 52.7128C56.5803 53.3805 56.7011 54.1859 56.7011 55.129C56.7011 56.0779 56.5818 56.8876 56.3431 57.558C56.1045 58.2256 55.7593 58.7356 55.3076 59.0878C54.8559 59.4373 54.309 59.612 53.667 59.612ZM53.667 58.6745C54.3034 58.6745 54.7977 58.3677 55.1499 57.754C55.5022 57.1404 55.6784 56.2654 55.6784 55.129C55.6784 54.3734 55.5974 53.7299 55.4355 53.1986C55.2764 52.6674 55.0463 52.2626 54.7451 51.9842C54.4468 51.7057 54.0874 51.5665 53.667 51.5665C53.0363 51.5665 52.5434 51.8776 52.1883 52.4998C51.8332 53.1191 51.6556 53.9955 51.6556 55.129C51.6556 55.8847 51.7352 56.5268 51.8943 57.0552C52.0534 57.5836 52.282 57.9856 52.5803 58.2611C52.8815 58.5367 53.2437 58.6745 53.667 58.6745ZM62.0704 55.129C62.0704 54.0552 62.2096 53.068 62.488 52.1674C62.7693 51.264 63.1698 50.433 63.6897 49.6745H64.5761C64.3715 49.9557 64.1798 50.3023 64.0008 50.7143C63.8247 51.1234 63.6698 51.5736 63.5363 52.0651C63.4028 52.5538 63.2977 53.0594 63.221 53.5822C63.1471 54.1049 63.1102 54.6205 63.1102 55.129C63.1102 55.8052 63.1755 56.4913 63.3062 57.1873C63.4369 57.8833 63.613 58.5296 63.8346 59.1262C64.0562 59.7228 64.3034 60.2086 64.5761 60.5836H63.6897C63.1698 59.8251 62.7693 58.9955 62.488 58.0949C62.2096 57.1915 62.0704 56.2029 62.0704 55.129ZM66.0276 50.7687H70.8516V51.5727H66.0276V50.7687ZM72.0756 53.3007H75.5916V54.1047H72.0756V53.3007ZM65.7156 53.0847H71.1516V53.9007H65.7156V53.0847ZM68.6556 55.6887H71.0316V56.4807H68.6556V55.6887ZM68.0316 49.4247H68.8836V53.5167H68.0316V49.4247ZM68.2476 53.6487H69.0756V59.1447H68.2476V53.6487ZM71.5956 49.9887H75.9996V54.4047H75.1356V50.7927H71.5956V49.9887ZM71.7156 53.3007H72.5796V57.2247C72.5796 57.4247 72.6196 57.5527 72.6996 57.6087C72.7876 57.6647 72.9756 57.6927 73.2636 57.6927C73.3276 57.6927 73.4476 57.6927 73.6236 57.6927C73.7996 57.6927 73.9916 57.6927 74.1996 57.6927C74.4156 57.6927 74.6156 57.6927 74.7996 57.6927C74.9916 57.6927 75.1356 57.6927 75.2316 57.6927C75.3996 57.6927 75.5276 57.6527 75.6156 57.5727C75.7036 57.4927 75.7636 57.3327 75.7956 57.0927C75.8356 56.8447 75.8636 56.4807 75.8796 56.0007C75.9436 56.0487 76.0236 56.0967 76.1196 56.1447C76.2156 56.1927 76.3116 56.2367 76.4076 56.2767C76.5116 56.3087 76.6036 56.3367 76.6836 56.3607C76.6516 56.9287 76.5916 57.3687 76.5036 57.6807C76.4156 57.9927 76.2756 58.2087 76.0836 58.3287C75.8916 58.4487 75.6276 58.5087 75.2916 58.5087C75.2356 58.5087 75.1356 58.5087 74.9916 58.5087C74.8476 58.5087 74.6836 58.5087 74.4996 58.5087C74.3156 58.5087 74.1316 58.5087 73.9476 58.5087C73.7636 58.5087 73.5996 58.5087 73.4556 58.5087C73.3196 58.5087 73.2276 58.5087 73.1796 58.5087C72.8036 58.5087 72.5076 58.4727 72.2916 58.4007C72.0836 58.3287 71.9356 58.2007 71.8476 58.0167C71.7596 57.8247 71.7156 57.5607 71.7156 57.2247V53.3007ZM67.0116 56.2527C67.1716 56.8847 67.3796 57.4007 67.6356 57.8007C67.8916 58.1927 68.2076 58.4967 68.5836 58.7127C68.9676 58.9287 69.4236 59.0767 69.9516 59.1567C70.4796 59.2367 71.0916 59.2767 71.7876 59.2767C71.8836 59.2767 72.0556 59.2807 72.3036 59.2887C72.5516 59.2887 72.8396 59.2887 73.1676 59.2887C73.5036 59.2807 73.8556 59.2767 74.2236 59.2767C74.5916 59.2767 74.9476 59.2767 75.2916 59.2767C75.6356 59.2767 75.9396 59.2767 76.2036 59.2767C76.4676 59.2687 76.6636 59.2607 76.7916 59.2527C76.7356 59.3167 76.6836 59.4007 76.6356 59.5047C76.5876 59.6167 76.5436 59.7287 76.5036 59.8407C76.4636 59.9527 76.4356 60.0527 76.4196 60.1407H75.5196H71.7996C70.9916 60.1407 70.2876 60.0887 69.6876 59.9847C69.0876 59.8887 68.5716 59.7087 68.1396 59.4447C67.7156 59.1807 67.3596 58.8087 67.0716 58.3287C66.7836 57.8487 66.5396 57.2327 66.3396 56.4807L67.0116 56.2527ZM66.3276 54.8487L67.1796 54.9087C67.1556 55.6767 67.1116 56.4047 67.0476 57.0927C66.9916 57.7807 66.8956 58.4167 66.7596 59.0007C66.6316 59.5847 66.4516 60.1007 66.2196 60.5487C66.1636 60.5087 66.0876 60.4607 65.9916 60.4047C65.9036 60.3567 65.8076 60.3047 65.7036 60.2487C65.6076 60.1927 65.5236 60.1527 65.4516 60.1287C65.6916 59.7207 65.8716 59.2447 65.9916 58.7007C66.1116 58.1487 66.1956 57.5487 66.2436 56.9007C66.2916 56.2447 66.3196 55.5607 66.3276 54.8487ZM82.5996 49.4127H83.4996V53.5047H82.5996V49.4127ZM79.9836 53.9127V56.0607H86.2596V53.9127H79.9836ZM79.1316 53.0607H87.1596V56.9007H79.1316V53.0607ZM83.0196 50.6847H88.0596V51.5367H83.0196V50.6847ZM81.2196 57.9567L82.0716 57.8847C82.1356 58.1327 82.1876 58.4047 82.2276 58.7007C82.2756 58.9887 82.3116 59.2647 82.3356 59.5287C82.3676 59.8007 82.3836 60.0327 82.3836 60.2247L81.4716 60.3447C81.4716 60.1447 81.4596 59.9087 81.4356 59.6367C81.4196 59.3647 81.3916 59.0807 81.3516 58.7847C81.3116 58.4887 81.2676 58.2127 81.2196 57.9567ZM83.7036 57.9687L84.5196 57.7887C84.6476 58.0287 84.7676 58.2927 84.8796 58.5807C84.9996 58.8607 85.1076 59.1327 85.2036 59.3967C85.3076 59.6607 85.3796 59.8927 85.4196 60.0927L84.5436 60.3207C84.5036 60.1207 84.4396 59.8847 84.3516 59.6127C84.2636 59.3407 84.1636 59.0607 84.0516 58.7727C83.9396 58.4847 83.8236 58.2167 83.7036 57.9687ZM86.1516 57.8727L86.9556 57.5607C87.1636 57.8167 87.3676 58.0887 87.5676 58.3767C87.7756 58.6647 87.9676 58.9527 88.1436 59.2407C88.3196 59.5207 88.4556 59.7727 88.5516 59.9967L87.6996 60.3567C87.6116 60.1327 87.4836 59.8767 87.3156 59.5887C87.1476 59.3007 86.9596 59.0087 86.7516 58.7127C86.5516 58.4087 86.3516 58.1287 86.1516 57.8727ZM79.2636 57.6327L80.1156 57.8607C79.9236 58.3247 79.6796 58.7927 79.3836 59.2647C79.0956 59.7367 78.7876 60.1287 78.4596 60.4407L77.6436 60.0447C77.9636 59.7727 78.2676 59.4167 78.5556 58.9767C78.8436 58.5287 79.0796 58.0807 79.2636 57.6327ZM92.2078 55.8109C92.2078 56.8847 92.0672 57.8734 91.786 58.7768C91.5075 59.6773 91.1084 60.5069 90.5885 61.2654H89.7021C89.9067 60.9842 90.097 60.6376 90.2732 60.2256C90.4521 59.8165 90.6084 59.3677 90.7419 58.879C90.8754 58.3876 90.9791 57.8805 91.053 57.3577C91.1297 56.8322 91.1681 56.3165 91.1681 55.8109C91.1681 55.1347 91.1027 54.4486 90.972 53.7526C90.8414 53.0566 90.6652 52.4103 90.4436 51.8137C90.222 51.2171 89.9749 50.7313 89.7021 50.3563H90.5885C91.1084 51.1148 91.5075 51.9458 91.786 52.8492C92.0672 53.7498 92.2078 54.737 92.2078 55.8109Z" fill="#999999"/>
<path d="M483.352 50.7654V59.4927H482.296V51.8734H482.244L480.114 53.2881V52.2143L482.296 50.7654H483.352ZM488.658 59.612C488.073 59.612 487.556 59.5083 487.107 59.3009C486.661 59.0907 486.313 58.8023 486.063 58.4359C485.813 58.0665 485.689 57.6461 485.692 57.1745C485.689 56.8052 485.762 56.4643 485.909 56.1518C486.057 55.8364 486.259 55.5736 486.514 55.3634C486.773 55.1503 487.061 55.0154 487.379 54.9586V54.9074C486.962 54.7995 486.629 54.5651 486.382 54.2043C486.135 53.8407 486.013 53.4273 486.016 52.9643C486.013 52.5211 486.125 52.1248 486.352 51.7753C486.58 51.4259 486.892 51.1503 487.29 50.9486C487.691 50.7469 488.146 50.6461 488.658 50.6461C489.164 50.6461 489.615 50.7469 490.013 50.9486C490.411 51.1503 490.723 51.4259 490.95 51.7753C491.181 52.1248 491.297 52.5211 491.3 52.9643C491.297 53.4273 491.171 53.8407 490.921 54.2043C490.673 54.5651 490.345 54.7995 489.936 54.9074V54.9586C490.252 55.0154 490.536 55.1503 490.789 55.3634C491.041 55.5736 491.243 55.8364 491.394 56.1518C491.544 56.4643 491.621 56.8052 491.624 57.1745C491.621 57.6461 491.493 58.0665 491.24 58.4359C490.99 58.8023 490.642 59.0907 490.196 59.3009C489.753 59.5083 489.24 59.612 488.658 59.612ZM488.658 58.6745C489.053 58.6745 489.394 58.6106 489.681 58.4827C489.967 58.3549 490.189 58.1745 490.345 57.9415C490.502 57.7086 490.581 57.4359 490.584 57.1234C490.581 56.7938 490.496 56.5026 490.328 56.2498C490.161 55.9969 489.932 55.7981 489.642 55.6532C489.355 55.5083 489.027 55.4359 488.658 55.4359C488.286 55.4359 487.953 55.5083 487.661 55.6532C487.371 55.7981 487.142 55.9969 486.975 56.2498C486.81 56.5026 486.729 56.7938 486.732 57.1234C486.729 57.4359 486.804 57.7086 486.958 57.9415C487.114 58.1745 487.337 58.3549 487.627 58.4827C487.916 58.6106 488.26 58.6745 488.658 58.6745ZM488.658 54.5324C488.97 54.5324 489.247 54.4699 489.489 54.3449C489.733 54.2199 489.925 54.0452 490.064 53.8208C490.203 53.5964 490.274 53.3336 490.277 53.0324C490.274 52.737 490.205 52.4799 490.068 52.2611C489.932 52.0396 489.743 51.8691 489.502 51.7498C489.26 51.6276 488.979 51.5665 488.658 51.5665C488.331 51.5665 488.046 51.6276 487.801 51.7498C487.557 51.8691 487.368 52.0396 487.235 52.2611C487.101 52.4799 487.036 52.737 487.039 53.0324C487.036 53.3336 487.102 53.5964 487.239 53.8208C487.378 54.0452 487.57 54.2199 487.814 54.3449C488.058 54.4699 488.34 54.5324 488.658 54.5324ZM494.007 58.3762C493.797 58.3762 493.616 58.3009 493.466 58.1503C493.315 57.9998 493.24 57.8194 493.24 57.6092C493.24 57.3989 493.315 57.2185 493.466 57.068C493.616 56.9174 493.797 56.8421 494.007 56.8421C494.217 56.8421 494.398 56.9174 494.548 57.068C494.699 57.2185 494.774 57.3989 494.774 57.6092C494.774 57.7484 494.738 57.8762 494.667 57.9927C494.599 58.1092 494.507 58.2029 494.39 58.2739C494.277 58.3421 494.149 58.3762 494.007 58.3762ZM494.007 53.9614C493.797 53.9614 493.616 53.8861 493.466 53.7356C493.315 53.585 493.24 53.4046 493.24 53.1944C493.24 52.9842 493.315 52.8038 493.466 52.6532C493.616 52.5026 493.797 52.4273 494.007 52.4273C494.217 52.4273 494.398 52.5026 494.548 52.6532C494.699 52.8038 494.774 52.9842 494.774 53.1944C494.774 53.3336 494.738 53.4614 494.667 53.5779C494.599 53.6944 494.507 53.7881 494.39 53.8592C494.277 53.9273 494.149 53.9614 494.007 53.9614ZM499.408 59.612C498.766 59.612 498.219 59.4373 497.768 59.0878C497.316 58.7356 496.971 58.2256 496.732 57.558C496.493 56.8876 496.374 56.0779 496.374 55.129C496.374 54.1859 496.493 53.3805 496.732 52.7128C496.974 52.0424 497.32 51.531 497.772 51.1788C498.226 50.8236 498.772 50.6461 499.408 50.6461C500.045 50.6461 500.589 50.8236 501.04 51.1788C501.495 51.531 501.841 52.0424 502.08 52.7128C502.322 53.3805 502.442 54.1859 502.442 55.129C502.442 56.0779 502.323 56.8876 502.084 57.558C501.846 58.2256 501.501 58.7356 501.049 59.0878C500.597 59.4373 500.05 59.612 499.408 59.612ZM499.408 58.6745C500.045 58.6745 500.539 58.3677 500.891 57.754C501.243 57.1404 501.42 56.2654 501.42 55.129C501.42 54.3734 501.339 53.7299 501.177 53.1986C501.018 52.6674 500.787 52.2626 500.486 51.9842C500.188 51.7057 499.829 51.5665 499.408 51.5665C498.778 51.5665 498.285 51.8776 497.929 52.4998C497.574 53.1191 497.397 53.9955 497.397 55.129C497.397 55.8847 497.476 56.5268 497.635 57.0552C497.795 57.5836 498.023 57.9856 498.322 58.2611C498.623 58.5367 498.985 58.6745 499.408 58.6745ZM506.908 59.612C506.266 59.612 505.719 59.4373 505.268 59.0878C504.816 58.7356 504.471 58.2256 504.232 57.558C503.993 56.8876 503.874 56.0779 503.874 55.129C503.874 54.1859 503.993 53.3805 504.232 52.7128C504.474 52.0424 504.82 51.531 505.272 51.1788C505.726 50.8236 506.272 50.6461 506.908 50.6461C507.545 50.6461 508.089 50.8236 508.54 51.1788C508.995 51.531 509.341 52.0424 509.58 52.7128C509.822 53.3805 509.942 54.1859 509.942 55.129C509.942 56.0779 509.823 56.8876 509.584 57.558C509.346 58.2256 509.001 58.7356 508.549 59.0878C508.097 59.4373 507.55 59.612 506.908 59.612ZM506.908 58.6745C507.545 58.6745 508.039 58.3677 508.391 57.754C508.743 57.1404 508.92 56.2654 508.92 55.129C508.92 54.3734 508.839 53.7299 508.677 53.1986C508.518 52.6674 508.287 52.2626 507.986 51.9842C507.688 51.7057 507.329 51.5665 506.908 51.5665C506.278 51.5665 505.785 51.8776 505.429 52.4998C505.074 53.1191 504.897 53.9955 504.897 55.129C504.897 55.8847 504.976 56.5268 505.135 57.0552C505.295 57.5836 505.523 57.9856 505.822 58.2611C506.123 58.5367 506.485 58.6745 506.908 58.6745ZM515.312 55.129C515.312 54.0552 515.451 53.068 515.729 52.1674C516.01 51.264 516.411 50.433 516.931 49.6745H517.817C517.613 49.9557 517.421 50.3023 517.242 50.7143C517.066 51.1234 516.911 51.5736 516.778 52.0651C516.644 52.5538 516.539 53.0594 516.462 53.5822C516.388 54.1049 516.351 54.6205 516.351 55.129C516.351 55.8052 516.417 56.4913 516.547 57.1873C516.678 57.8833 516.854 58.5296 517.076 59.1262C517.297 59.7228 517.545 60.2086 517.817 60.5836H516.931C516.411 59.8251 516.01 58.9955 515.729 58.0949C515.451 57.1915 515.312 56.2029 515.312 55.129ZM519.041 50.2167H523.013V51.0687H519.041V50.2167ZM519.221 53.6967H522.773V54.5367H519.221V53.6967ZM518.897 58.2927C519.257 58.2047 519.661 58.1007 520.109 57.9807C520.565 57.8527 521.045 57.7127 521.549 57.5607C522.061 57.4087 522.573 57.2567 523.085 57.1047L523.193 57.9447C522.481 58.1607 521.761 58.3767 521.033 58.5927C520.313 58.8007 519.669 58.9927 519.101 59.1687L518.897 58.2927ZM520.649 50.6007H521.513V57.9807L520.649 58.1487V50.6007ZM523.565 50.0007H528.953V56.3847H528.065V50.7927H524.429V56.3847H523.565V50.0007ZM526.301 56.1807H527.141V59.0247C527.141 59.1927 527.169 59.3087 527.225 59.3727C527.289 59.4287 527.405 59.4567 527.573 59.4567H528.557C528.701 59.4567 528.805 59.4047 528.869 59.3007C528.941 59.1967 528.993 59.0007 529.025 58.7127C529.065 58.4167 529.093 57.9807 529.109 57.4047C529.213 57.5007 529.333 57.5767 529.469 57.6327C529.605 57.6887 529.729 57.7327 529.841 57.7647C529.801 58.3967 529.749 58.8847 529.685 59.2287C529.621 59.5727 529.501 59.8087 529.325 59.9367C529.157 60.0727 528.901 60.1407 528.557 60.1407H527.453C527.037 60.1407 526.741 60.0687 526.565 59.9247C526.389 59.7887 526.301 59.5167 526.301 59.1087V56.1807ZM525.785 51.8127H526.625V54.1527C526.625 54.6647 526.577 55.2047 526.481 55.7727C526.393 56.3407 526.221 56.9087 525.965 57.4767C525.709 58.0447 525.337 58.5887 524.849 59.1087C524.361 59.6207 523.721 60.0807 522.929 60.4887C522.905 60.4247 522.857 60.3527 522.785 60.2727C522.721 60.1927 522.649 60.1087 522.569 60.0207C522.497 59.9407 522.429 59.8807 522.365 59.8407C523.125 59.4487 523.733 59.0207 524.189 58.5567C524.645 58.0847 524.985 57.6007 525.209 57.1047C525.441 56.6007 525.593 56.0967 525.665 55.5927C525.745 55.0887 525.785 54.6007 525.785 54.1287V51.8127ZM531.137 51.2727H541.649V52.1367H531.137V51.2727ZM534.857 55.0767H541.181V55.9167H534.857V55.0767ZM534.377 59.3247H541.637V60.1647H534.377V59.3247ZM537.557 52.7607H538.457V59.7807H537.557V52.7607ZM535.073 49.4127L536.009 49.6407C535.729 50.5527 535.373 51.4567 534.941 52.3527C534.517 53.2487 534.005 54.0887 533.405 54.8727C532.805 55.6487 532.105 56.3207 531.305 56.8887C531.273 56.8087 531.229 56.7207 531.173 56.6247C531.117 56.5207 531.057 56.4207 530.993 56.3247C530.937 56.2207 530.885 56.1327 530.837 56.0607C531.381 55.6847 531.873 55.2447 532.313 54.7407C532.761 54.2287 533.161 53.6807 533.513 53.0967C533.865 52.5047 534.169 51.8967 534.425 51.2727C534.689 50.6487 534.905 50.0287 535.073 49.4127ZM532.697 54.3567H533.597V60.4047H532.697V54.3567ZM545.449 55.8109C545.449 56.8847 545.308 57.8734 545.027 58.7768C544.749 59.6773 544.35 60.5069 543.83 61.2654H542.943C543.148 60.9842 543.338 60.6376 543.514 60.2256C543.693 59.8165 543.85 59.3677 543.983 58.879C544.117 58.3876 544.22 57.8805 544.294 57.3577C544.371 56.8322 544.409 56.3165 544.409 55.8109C544.409 55.1347 544.344 54.4486 544.213 53.7526C544.083 53.0566 543.906 52.4103 543.685 51.8137C543.463 51.2171 543.216 50.7313 542.943 50.3563H543.83C544.35 51.1148 544.749 51.9458 545.027 52.8492C545.308 53.7498 545.449 54.737 545.449 55.8109Z" fill="#999999"/>
<path d="M398.051 9.37185V18.0991H396.206V11.1233H396.154L394.156 12.3761V10.7397L396.316 9.37185H398.051ZM399.993 16.565V15.1119L403.636 9.37185H404.889V11.3832H404.148L401.851 15.0182V15.0863H407.028V16.565H399.993ZM404.182 18.0991V16.1218L404.216 15.4784V9.37185H405.946V18.0991H404.182ZM409.336 17.0849C409.055 17.0849 408.813 16.9855 408.611 16.7866C408.413 16.5878 408.313 16.3463 408.313 16.0622C408.313 15.7838 408.413 15.5451 408.611 15.3463C408.813 15.1474 409.055 15.048 409.336 15.048C409.609 15.048 409.847 15.1474 410.052 15.3463C410.256 15.5451 410.359 15.7838 410.359 16.0622C410.359 16.2497 410.31 16.4216 410.214 16.5778C410.12 16.7312 409.996 16.8548 409.843 16.9486C409.69 17.0395 409.521 17.0849 409.336 17.0849ZM409.336 12.8022C409.055 12.8022 408.813 12.7028 408.611 12.504C408.413 12.3051 408.313 12.0636 408.313 11.7795C408.313 11.5011 408.413 11.2639 408.611 11.0679C408.813 10.869 409.055 10.7696 409.336 10.7696C409.609 10.7696 409.847 10.869 410.052 11.0679C410.256 11.2639 410.359 11.5011 410.359 11.7795C410.359 11.9699 410.31 12.1432 410.214 12.2994C410.12 12.4528 409.996 12.575 409.843 12.6659C409.69 12.7568 409.521 12.8022 409.336 12.8022ZM415.058 18.2184C414.422 18.2184 413.855 18.1091 413.358 17.8903C412.863 17.6687 412.473 17.3647 412.186 16.9784C411.902 16.5892 411.755 16.1403 411.747 15.6318H413.605C413.616 15.8449 413.686 16.0324 413.814 16.1943C413.944 16.3534 414.118 16.477 414.333 16.565C414.549 16.6531 414.792 16.6971 415.062 16.6971C415.343 16.6971 415.592 16.6474 415.808 16.548C416.024 16.4486 416.193 16.3108 416.315 16.1346C416.437 15.9585 416.498 15.7554 416.498 15.5253C416.498 15.2923 416.433 15.0863 416.302 14.9074C416.174 14.7255 415.99 14.5835 415.748 14.4812C415.51 14.379 415.225 14.3278 414.896 14.3278H414.082V12.9727H414.896C415.174 12.9727 415.42 12.9244 415.633 12.8278C415.849 12.7312 416.017 12.5977 416.136 12.4272C416.255 12.254 416.315 12.0522 416.315 11.8221C416.315 11.6034 416.262 11.4116 416.157 11.2468C416.055 11.0792 415.91 10.9486 415.723 10.8548C415.538 10.7611 415.322 10.7142 415.075 10.7142C414.825 10.7142 414.596 10.7596 414.389 10.8505C414.181 10.9386 414.015 11.065 413.89 11.2298C413.765 11.3946 413.698 11.5878 413.69 11.8093H411.922C411.93 11.3065 412.073 10.8633 412.352 10.4798C412.63 10.0963 413.005 9.79656 413.477 9.58065C413.951 9.3619 414.487 9.25253 415.083 9.25253C415.686 9.25253 416.213 9.3619 416.664 9.58065C417.116 9.7994 417.467 10.0949 417.717 10.467C417.97 10.8363 418.095 11.2511 418.092 11.7113C418.095 12.2 417.943 12.6076 417.636 12.9343C417.332 13.2611 416.936 13.4684 416.447 13.5565V13.6247C417.089 13.7071 417.578 13.9301 417.913 14.2937C418.251 14.6545 418.419 15.1062 418.416 15.6488C418.419 16.146 418.275 16.5878 417.985 16.9741C417.698 17.3605 417.302 17.6645 416.797 17.8861C416.291 18.1076 415.711 18.2184 415.058 18.2184ZM423.164 18.2909C422.431 18.288 421.8 18.1076 421.272 17.7497C420.746 17.3917 420.342 16.8733 420.058 16.1943C419.776 15.5153 419.637 14.6986 419.64 13.744C419.64 12.7923 419.781 11.9812 420.062 11.3108C420.346 10.6403 420.751 10.1304 421.276 9.78094C421.805 9.42867 422.434 9.25253 423.164 9.25253C423.894 9.25253 424.522 9.42867 425.048 9.78094C425.576 10.1332 425.982 10.6446 426.266 11.315C426.55 11.9826 426.691 12.7923 426.688 13.744C426.688 14.7014 426.546 15.5196 426.262 16.1986C425.981 16.8775 425.577 17.396 425.052 17.754C424.526 18.1119 423.897 18.2909 423.164 18.2909ZM423.164 16.7611C423.664 16.7611 424.063 16.5096 424.361 16.0068C424.66 15.504 424.808 14.7497 424.805 13.744C424.805 13.0821 424.736 12.5309 424.6 12.0906C424.467 11.6503 424.276 11.3193 424.029 11.0977C423.785 10.8761 423.496 10.7653 423.164 10.7653C422.667 10.7653 422.269 11.0139 421.971 11.5111C421.673 12.0082 421.522 12.7525 421.519 13.744C421.519 14.4145 421.586 14.9741 421.719 15.423C421.856 15.869 422.048 16.2042 422.295 16.4287C422.542 16.6503 422.832 16.7611 423.164 16.7611Z" fill="#006633"/>
</svg>
