<svg width="41" height="41" viewBox="0 0 41 41" fill="none" xmlns="http://www.w3.org/2000/svg">
<path d="M20.5 15.375V22.2083M20.5 29.0417H20.5171M17.5787 6.59418L3.10916 30.75C2.81083 31.2667 2.65298 31.8524 2.65131 32.449C2.64964 33.0456 2.80421 33.6322 3.09964 34.1505C3.39507 34.6688 3.82107 35.1007 4.33525 35.4033C4.84943 35.7058 5.43386 35.8685 6.03041 35.875H34.9696C35.5661 35.8685 36.1506 35.7058 36.6647 35.4033C37.1789 35.1007 37.6049 34.6688 37.9004 34.1505C38.1958 33.6322 38.3504 33.0456 38.3487 32.449C38.347 31.8524 38.1892 31.2667 37.8908 30.75L23.4212 6.59418C23.1167 6.09211 22.6879 5.67701 22.1762 5.38892C21.6645 5.10084 21.0872 4.94949 20.5 4.94949C19.9128 4.94949 19.3355 5.10084 18.8238 5.38892C18.3121 5.67701 17.8833 6.09211 17.5787 6.59418Z" stroke="#006800" stroke-width="4" stroke-linecap="round" stroke-linejoin="round"/>
</svg>
